<svg width="56" height="56" viewBox="0 0 56 56" fill="none" xmlns="http://www.w3.org/2000/svg">
<g clip-path="url(#clip0_17_347)">
<path d="M13.272 23.2399C10.808 25.3119 8.512 27.5519 6.272 29.7359V22.0079C11.144 16.4639 20.16 8.84788 31.136 8.84788C40.152 8.84788 49.168 14.1119 56 22.0079V29.7359C51.856 25.4799 46.76 20.9439 41.496 18.0319C44.464 24.6399 42.056 30.3519 39.48 33.5439L40.376 34.6639C43.736 32.0879 46.928 29.0639 49.672 26.1519V34.0479C42.896 41.9439 33.992 47.0959 24.976 47.0959C15.904 47.0959 6.888 41.9439 0 34.0479V26.1519C6.888 33.2639 15.904 40.8239 24.976 40.8239C26.88 40.8239 28.84 40.4879 30.632 39.8719L30.296 38.8639C19.656 40.0399 12.6 31.6399 13.272 23.2399ZM0 55.9999H56V35.3919C56 35.3919 53.424 38.2479 49.672 40.8239V49.7279H6.272V46.0319C2.632 43.6799 0 40.8239 0 40.8239V55.9999ZM0 20.5519C0 20.5519 2.632 17.7519 6.272 15.2319V6.27188H49.672V9.91188C53.48 12.3199 56 15.2319 56 15.2319V6.27188H49.672V-0.00012207H0V20.5519ZM26.768 20.6079C29.12 20.6079 31.08 22.6799 31.08 24.9759H32.256C32.256 22.6799 34.216 20.6079 36.624 20.6079V19.3759C34.216 19.3759 32.256 17.4159 32.256 15.1199H31.08C31.08 17.4159 29.12 19.3759 26.768 19.3759V20.6079Z" fill="#1F1F33"/>
</g>
<defs>
<clipPath id="clip0_17_347">
<rect width="56" height="56" fill="white"/>
</clipPath>
</defs>
</svg>
