<?xml version="1.0" encoding="UTF-8"?>
<!DOCTYPE svg PUBLIC "-//W3C//DTD SVG 1.1//EN" "http://www.w3.org/Graphics/SVG/1.1/DTD/svg11.dtd">
<!-- Creator: CorelDRAW 2017 -->
<svg xmlns="http://www.w3.org/2000/svg" xml:space="preserve" width="155.5mm" height="36.09mm" version="1.1" style="shape-rendering:geometricPrecision; text-rendering:geometricPrecision; image-rendering:optimizeQuality; fill-rule:evenodd; clip-rule:evenodd"
viewBox="0 0 15550 3609"
 xmlns:xlink="http://www.w3.org/1999/xlink">
 <defs>
  <style type="text/css">
   <![CDATA[
    .fil5 {fill:#059A41}
    .fil0 {fill:#214B87}
    .fil4 {fill:#2B2A29}
    .fil1 {fill:#FEFEFE}
    .fil3 {fill:#1DA43F;fill-rule:nonzero}
    .fil2 {fill:#2B2A29;fill-rule:nonzero}
   ]]>
  </style>
 </defs>
 <g id="Layer_x0020_1">
  <metadata id="CorelCorpID_0Corel-Layer"/>
  <g id="_2929119270464">
   <path class="fil0" d="M2088.71 46.56c1079.95,0 1955.41,789.15 1955.41,1762.61 0,973.47 -875.46,1762.61 -1955.41,1762.61 -1079.93,0 -1955.38,-789.14 -1955.38,-1762.61 0,-973.46 875.45,-1762.61 1955.38,-1762.61z"/>
   <polygon class="fil1" points="1527.58,977.43 1836.86,977.43 1836.86,2420.79 1527.58,2420.79 1527.58,2064.4 1009.59,2064.4 1009.59,1755.11 1527.58,1755.11 "/>
   <polygon class="fil1" points="1934.07,977.43 2243.35,977.43 2243.35,2640.91 1934.07,2640.91 "/>
   <polygon class="fil1" points="2649.85,977.43 2340.56,977.43 2340.56,2420.79 2649.85,2420.79 2649.85,2064.4 3167.84,2064.4 3167.84,1755.11 2649.85,1755.11 "/>
   <polygon class="fil2" points="4423.27,371.63 6360.39,371.63 6360.39,926.43 5226.89,926.43 5226.89,1365.17 6187.24,1365.17 6187.24,1849.85 5226.89,1849.85 5226.89,2918.19 4423.27,2918.19 "/>
   <polygon class="fil2" points="6383.6,1087.95 7091.21,1087.95 7091.21,2890.76 6383.6,2890.76 "/>
   <polygon class="fil3" points="13139.6,1060.09 13963.11,1060.09 14217.42,1473.2 14471.73,1060.09 15323.52,1060.09 14669.54,1909.7 15323.52,2868.42 14471.73,2868.42 14217.42,2381.26 13934.86,2868.42 13083.1,2868.42 13757.25,1909.7 "/>
   <path class="fil4" d="M10143.22 978.12c594.62,0 1076.68,449.63 1076.68,1004.25 0,554.63 -482.06,1004.29 -1076.68,1004.29 -594.63,0 -1076.69,-449.66 -1076.69,-1004.29 0,-554.62 482.06,-1004.25 1076.69,-1004.25zm0 515.11c270.15,0 489.13,219 489.13,489.14 0,270.16 -218.98,489.16 -489.13,489.16 -270.15,0 -489.15,-219 -489.15,-489.16 0,-270.14 219,-489.14 489.15,-489.14z"/>
   <path class="fil5" d="M10143.22 1739.97c133.89,0 242.41,108.52 242.41,242.42 0,133.87 -108.52,242.39 -242.41,242.39 -133.88,0 -242.4,-108.52 -242.4,-242.39 0,-133.9 108.52,-242.42 242.4,-242.42z"/>
   <path class="fil2" d="M7213.65 1067.13l632.49 0 0 277.57c60.56,-95.08 136.95,-168.32 229.12,-219.74 92.15,-51.4 188.71,-83.54 289.72,-96.38 17.68,-2.58 34.71,-4.49 51.13,-5.78 16.42,-1.28 33.46,-1.92 51.11,-1.92 166.65,0 318.76,50.75 456.38,152.29 137.6,101.53 206.4,247.36 206.4,437.56l0 1272.32 -719.6 0 0 -1029.41c0,-79.68 -23.97,-139.45 -71.92,-179.29 -47.99,-39.83 -99.74,-61.05 -155.29,-63.62 -2.54,0 -4.42,0 -5.66,0 -1.27,0 -3.17,0 -5.7,0 -2.54,0 -4.42,0 -5.69,0 -1.26,0 -3.15,0 -5.68,0 -55.52,2.57 -107.28,23.79 -155.29,63.62 -47.95,39.84 -71.92,99.61 -71.92,179.29l0 1029.41 -719.6 0 0 -1815.92z"/>
   <path class="fil3" d="M11205.43 1060.09l727.41 0 0 1075.65c0,72.74 24.24,127.3 72.73,163.67 48.47,36.37 100.8,55.86 156.95,58.46 2.55,0 4.48,0 5.75,0 1.26,0 3.2,0 5.75,0 2.55,0 4.46,0 5.72,0 1.29,0 3.22,0 5.77,0 56.13,-2.6 108.44,-22.09 156.93,-58.46 48.52,-36.37 72.75,-90.93 72.75,-163.67l0 -1075.65 754.17 0 0 1808.33 -673.76 0 0 -245.52c-51.07,101.31 -123.16,177.33 -216.32,227.99 -93.15,50.65 -190.78,81.19 -292.87,91.57 -12.73,2.6 -24.87,3.91 -36.35,3.91 -11.5,0 -23.61,0 -36.37,0 -5.13,0 -10.21,0 -15.32,0 -5.1,0 -10.21,0 -15.31,0 -171,-7.79 -326.69,-66.25 -467.06,-175.37 -140.37,-109.13 -210.57,-257.22 -210.57,-444.29l0 -1266.62z"/>
   <path class="fil4" d="M6737.39 368.69c176.9,0 320.29,143.4 320.29,320.27 0,176.9 -143.39,320.3 -320.29,320.3 -176.88,0 -320.27,-143.4 -320.27,-320.3 0,-176.87 143.39,-320.27 320.27,-320.27z"/>
   <path class="fil2" d="M6372.79 3416.84l75.17 -8.51c4.53,28.69 13.58,49.69 27.34,63.18 13.78,13.49 32.34,20.17 55.71,20.17 24.72,0 43.36,-5.97 55.9,-17.93 12.51,-11.99 18.82,-25.97 18.82,-41.99 0,-10.35 -2.67,-19.06 -7.9,-26.36 -5.24,-7.22 -14.47,-13.5 -27.63,-18.78 -8.97,-3.64 -29.41,-9.95 -61.39,-19.07 -41.14,-11.76 -70.01,-26.16 -86.64,-43.3 -23.35,-24.03 -35,-53.35 -35,-87.92 0,-22.22 5.5,-43.1 16.42,-62.48 11.03,-19.37 26.84,-34.07 47.54,-44.21 20.71,-10.14 45.59,-15.23 74.9,-15.23 47.72,0 83.72,12.08 107.78,36.31 24.16,24.24 36.79,56.51 38.04,96.97l-77.3 3.04c-3.31,-22.53 -10.33,-38.64 -21.05,-48.47 -10.76,-9.86 -26.94,-14.83 -48.44,-14.83 -22.2,0 -39.62,5.28 -52.13,15.83 -8.11,6.79 -12.19,15.82 -12.19,27.18 0,10.34 3.82,19.18 11.45,26.48 9.68,9.43 33.23,19.15 70.64,29.29 37.42,10.06 65.06,20.6 82.89,31.34 17.96,10.85 32.01,25.57 42.11,44.32 10.14,18.78 15.22,41.91 15.22,69.38 0,24.95 -6.06,48.38 -18.22,70.17 -12.18,21.82 -29.34,38.04 -51.53,48.59 -22.21,10.65 -49.94,15.91 -83.1,15.91 -48.22,0 -85.28,-12.68 -111.14,-38.13 -25.85,-25.35 -41.23,-62.37 -46.27,-110.95zm359.84 -74.03c0,-44.41 5.86,-81.74 17.49,-111.97 8.61,-22.21 20.53,-42.18 35.55,-59.83 15,-17.65 31.45,-30.72 49.29,-39.35 23.84,-11.45 51.29,-17.25 82.38,-17.25 56.34,0 101.3,20.01 135.14,59.84 33.76,39.97 50.65,95.43 50.65,166.54 0,70.49 -16.78,125.66 -50.3,165.41 -33.48,39.86 -78.36,59.72 -134.42,59.72 -56.79,0 -102,-19.78 -135.51,-59.42 -33.47,-39.56 -50.27,-94.12 -50.27,-163.69zm79.41 -2.93c0,49.38 10.06,86.79 30.05,112.36 20,25.46 45.41,38.24 76.14,38.24 30.83,0 56.06,-12.69 75.89,-37.93 19.73,-25.36 29.58,-63.29 29.58,-113.89 0,-50.01 -9.59,-87.33 -28.87,-111.88 -19.21,-24.63 -44.7,-36.91 -76.6,-36.91 -31.8,0 -57.5,12.48 -76.94,37.33 -19.47,24.95 -29.25,62.48 -29.25,112.68zm353.39 218.13l0 -432.03 77.29 0 0 358.4 191.38 0 0 73.63 -268.67 0zm323.5 -435.67l77.31 0 0 236.09c0,37.53 0.95,61.77 2.81,72.82 3.31,17.84 11.03,32.25 23.31,42.99 12.33,10.85 29.11,16.24 50.46,16.24 21.6,0 37.94,-5.08 48.96,-15.31 11.01,-10.25 17.58,-22.73 19.8,-37.64 2.22,-14.91 3.39,-39.55 3.39,-74.04l0 -241.15 77.28 0 0 229.1c0,52.34 -2.04,89.33 -6.22,110.95 -4.16,21.59 -11.8,39.85 -23.01,54.75 -11.09,14.91 -26.03,26.68 -44.69,35.51 -18.73,8.8 -43.08,13.27 -73.19,13.27 -36.36,0 -63.9,-4.75 -82.66,-14.38 -18.72,-9.66 -33.58,-22.13 -44.49,-37.54 -10.92,-15.42 -18.04,-31.44 -21.51,-48.38 -5.08,-24.94 -7.55,-61.84 -7.55,-110.63l0 -232.65zm470.82 435.67l0 -362.05 -113.03 0 0 -73.62 302.82 0 0 73.62 -112.52 0 0 362.05 -77.27 0zm237.13 0l0 -435.67 77.3 0 0 435.67 -77.3 0zm134.8 -215.2c0,-44.41 5.86,-81.74 17.49,-111.97 8.61,-22.21 20.53,-42.18 35.56,-59.83 15,-17.65 31.44,-30.72 49.31,-39.35 23.81,-11.45 51.27,-17.25 82.36,-17.25 56.32,0 101.29,20.01 135.13,59.84 33.76,39.97 50.65,95.43 50.65,166.54 0,70.49 -16.78,125.66 -50.29,165.41 -33.49,39.86 -78.34,59.72 -134.42,59.72 -56.78,0 -102.01,-19.78 -135.52,-59.42 -33.47,-39.56 -50.27,-94.12 -50.27,-163.69zm79.43 -2.93c0,49.38 10.06,86.79 30.03,112.36 19.99,25.46 45.41,38.24 76.15,38.24 30.85,0 56.06,-12.69 75.87,-37.93 19.73,-25.36 29.59,-63.29 29.59,-113.89 0,-50.01 -9.59,-87.33 -28.88,-111.88 -19.19,-24.63 -44.67,-36.91 -76.58,-36.91 -31.8,0 -57.51,12.48 -76.95,37.33 -19.46,24.95 -29.23,62.48 -29.23,112.68zm351.24 218.13l0 -435.67 74.81 0 157.09 291.97 0 -291.97 71.43 0 0 435.67 -77.21 0 -154.68 -286.4 0 286.4 -71.44 0zm364.72 -141.17l75.17 -8.51c4.53,28.69 13.6,49.69 27.36,63.18 13.76,13.49 32.34,20.17 55.71,20.17 24.7,0 43.36,-5.97 55.91,-17.93 12.51,-11.99 18.82,-25.97 18.82,-41.99 0,-10.35 -2.67,-19.06 -7.91,-26.36 -5.23,-7.22 -14.49,-13.5 -27.65,-18.78 -8.97,-3.64 -29.39,-9.95 -61.39,-19.07 -41.12,-11.76 -69.99,-26.16 -86.61,-43.3 -23.37,-24.03 -35.01,-53.35 -35.01,-87.92 0,-22.22 5.49,-43.1 16.43,-62.48 11.02,-19.37 26.83,-34.07 47.53,-44.21 20.71,-10.14 45.57,-15.23 74.9,-15.23 47.73,0 83.7,12.08 107.78,36.31 24.17,24.24 36.77,56.51 38.02,96.97l-77.28 3.04c-3.31,-22.53 -10.32,-38.64 -21.07,-48.47 -10.74,-9.86 -26.91,-14.83 -48.42,-14.83 -22.22,0 -39.64,5.28 -52.16,15.83 -8.07,6.79 -12.15,15.82 -12.15,27.18 0,10.34 3.79,19.18 11.45,26.48 9.67,9.43 33.22,19.15 70.63,29.29 37.4,10.06 65.03,20.6 82.88,31.34 17.98,10.85 32,25.57 42.12,44.32 10.12,18.78 15.2,41.91 15.2,69.38 0,24.95 -6.03,48.38 -18.22,70.17 -12.16,21.82 -29.31,38.04 -51.51,48.59 -22.24,10.65 -49.93,15.91 -83.09,15.91 -48.25,0 -85.29,-12.68 -111.17,-38.13 -25.83,-25.35 -41.21,-62.37 -46.27,-110.95zm576.38 141.17l-89.75 -435.67 79.46 0 56.77 299.28 69.64 -299.28 91.88 0 66.62 304.33 58.13 -304.33 77.56 0 -91.94 435.67 -82.54 0 -75.28 -325.75 -75.79 325.75 -84.76 0zm448.06 0l0 -435.67 77.3 0 0 435.67 -77.3 0zm236.63 0l0 -362.05 -113.03 0 0 -73.62 302.83 0 0 73.62 -112.5 0 0 362.05 -77.3 0zm239.82 0l0 -435.67 77.3 0 0 171.6 150.32 0 0 -171.6 77.32 0 0 435.67 -77.32 0 0 -190.46 -150.32 0 0 190.46 -77.3 0zm857.13 0l-83.25 0 -32.95 -99.18 -153.12 0 -31.71 99.18 -81.74 0 148.21 -435.67 81.65 0 152.91 435.67zm-141.28 -172.81l-53.04 -161.24 -51.51 161.24 104.55 0zm408.38 172.81l-136.58 -435.67 83.51 0 96.94 322.49 93.03 -322.49 82.1 0 -135.76 435.67 -83.24 0zm255.24 0l0 -435.67 77.33 0 0 435.67 -77.33 0zm130.56 -141.17l75.18 -8.51c4.52,28.69 13.57,49.69 27.34,63.18 13.78,13.49 32.33,20.17 55.7,20.17 24.72,0 43.37,-5.97 55.91,-17.93 12.51,-11.99 18.82,-25.97 18.82,-41.99 0,-10.35 -2.67,-19.06 -7.9,-26.36 -5.24,-7.22 -14.48,-13.5 -27.64,-18.78 -8.96,-3.64 -29.4,-9.95 -61.38,-19.07 -41.15,-11.76 -70.02,-26.16 -86.64,-43.3 -23.35,-24.03 -35,-53.35 -35,-87.92 0,-22.22 5.5,-43.1 16.42,-62.48 11.03,-19.37 26.83,-34.07 47.53,-44.21 20.72,-10.14 45.59,-15.23 74.91,-15.23 47.72,0 83.71,12.08 107.77,36.31 24.17,24.24 36.8,56.51 38.04,96.97l-77.3 3.04c-3.3,-22.53 -10.32,-38.64 -21.04,-48.47 -10.76,-9.86 -26.94,-14.83 -48.45,-14.83 -22.19,0 -39.61,5.28 -52.15,15.83 -8.08,6.79 -12.16,15.82 -12.16,27.18 0,10.34 3.82,19.18 11.45,26.48 9.68,9.43 33.23,19.15 70.64,29.29 37.42,10.06 65.03,20.6 82.89,31.34 17.96,10.85 32.01,25.57 42.1,44.32 10.15,18.78 15.2,41.91 15.2,69.38 0,24.95 -6.03,48.38 -18.19,70.17 -12.18,21.82 -29.34,38.04 -51.54,48.59 -22.21,10.65 -49.93,15.91 -83.09,15.91 -48.23,0 -85.29,-12.68 -111.14,-38.13 -25.86,-25.35 -41.24,-62.37 -46.28,-110.95zm373.17 141.17l0 -435.67 77.29 0 0 435.67 -77.29 0zm150.8 -435.67l152.62 0c30.29,0 52.8,1.42 67.63,4.26 14.91,2.93 28.16,8.92 39.88,17.93 11.73,9.14 21.5,21.22 29.32,36.31 7.83,15.12 11.73,32.16 11.73,50.91 0,20.29 -4.79,39.07 -14.4,55.99 -9.59,17.05 -22.66,29.72 -39.08,38.25 23.17,7.78 40.94,20.99 53.48,39.63 12.43,18.67 18.65,40.57 18.65,65.82 0,19.89 -3.98,39.16 -12.08,57.91 -8.07,18.77 -19.11,33.78 -33.13,45.03 -13.94,11.16 -31.2,18.07 -51.71,20.68 -12.79,1.54 -43.81,2.55 -92.95,2.95l-129.96 0 0 -435.67zm77.28 72.39l0 100.41 50.48 0c29.94,0 48.58,-0.49 55.86,-1.51 13.16,-1.73 23.55,-6.9 31.1,-15.51 7.57,-8.64 11.29,-19.89 11.29,-33.9 0,-13.47 -3.28,-24.32 -9.76,-32.75 -6.5,-8.41 -16.18,-13.47 -28.99,-15.21 -7.63,-1.01 -29.56,-1.53 -65.73,-1.53l-44.25 0zm0 172.82l0 116.83 71.44 0c27.72,0 45.41,-0.91 52.86,-2.62 11.47,-2.44 20.79,-8.23 28.01,-17.45 7.19,-9.34 10.83,-21.61 10.83,-37.12 0,-13.18 -2.78,-24.24 -8.37,-33.36 -5.5,-9.15 -13.58,-15.82 -24.08,-19.99 -10.47,-4.16 -33.31,-6.29 -68.42,-6.29l-62.27 0zm309.81 190.46l0 -432.03 77.31 0 0 358.4 191.39 0 0 73.63 -268.7 0zm323.52 0l0 -435.67 282.54 0 0 73.62 -205.25 0 0 96.76 190.87 0 0 73.62 -190.87 0 0 118.04 212.71 0 0 73.63 -290 0zm503.72 0l0 -435.67 282.52 0 0 73.62 -205.24 0 0 96.76 190.86 0 0 73.62 -190.86 0 0 118.04 212.72 0 0 73.63 -290 0zm355.58 -435.67l140.55 0c31.71,0 55.88,2.73 72.5,8.3 22.31,7.52 41.49,20.91 57.4,40.17 15.98,19.17 28.07,42.7 36.42,70.6 8.25,27.78 12.44,62.16 12.44,102.93 0,35.89 -3.9,66.74 -11.73,92.68 -9.5,31.76 -23.08,57.41 -40.79,76.98 -13.32,14.92 -31.36,26.46 -54,34.79 -16.98,6.19 -39.64,9.22 -68.07,9.22l-144.72 0 0 -435.67zm77.28 73.62l0 288.42 57.33 0c21.39,0 36.86,-1.42 46.36,-4.15 12.53,-3.55 22.83,-9.63 31.02,-18.16 8.26,-8.52 14.91,-22.5 20.06,-41.99 5.24,-19.46 7.83,-46.14 7.83,-79.8 0,-33.67 -2.59,-59.43 -7.83,-77.48 -5.15,-18.06 -12.43,-32.05 -21.77,-42.19 -9.32,-10.05 -21.15,-16.93 -35.53,-20.48 -10.66,-2.76 -31.71,-4.17 -63,-4.17l-34.47 0zm485.21 202.02l0 -73.64 165.81 0 0 173.85c-16.09,17.95 -39.46,33.66 -70.13,47.35 -30.56,13.59 -61.57,20.38 -93.02,20.38 -39.9,0 -74.63,-9.52 -104.31,-28.7 -29.6,-19.15 -51.88,-46.65 -66.8,-82.25 -14.93,-35.6 -22.41,-74.43 -22.41,-116.31 0,-45.43 8.37,-85.81 24.97,-121.2 16.71,-35.29 41.05,-62.48 73.12,-81.34 24.52,-14.49 54.91,-21.71 91.35,-21.71 47.34,0 84.4,11.37 111.05,34.1 26.57,22.81 43.73,54.14 51.36,94.29l-76.77 16.45c-5.32,-21.4 -15.44,-38.35 -30.29,-50.82 -14.76,-12.37 -33.25,-18.56 -55.44,-18.56 -33.58,0 -60.34,12.17 -80.14,36.62 -19.82,24.44 -29.78,60.63 -29.78,108.62 0,51.82 10.05,90.65 30.12,116.51 20.19,25.88 46.47,38.86 79.07,38.86 16.11,0 32.27,-3.66 48.45,-10.85 16.24,-7.21 30.11,-16.03 41.77,-26.36l0 -55.29 -87.98 0zm237.16 160.03l0 -435.67 282.52 0 0 73.62 -205.24 0 0 96.76 190.86 0 0 73.62 -190.86 0 0 118.04 212.72 0 0 73.63 -290 0z"/>
  </g>
 </g>
</svg>
